<?xml version="1.0" encoding="utf-8"?>
<!-- Generator: Adobe Illustrator 23.0.1, SVG Export Plug-In . SVG Version: 6.00 Build 0)  -->
<svg version="1.1" xmlns="http://www.w3.org/2000/svg" xmlns:xlink="http://www.w3.org/1999/xlink" x="0px" y="0px"
	 viewBox="0 0 1200 1200" style="enable-background:new 0 0 1200 1200;" xml:space="preserve">
<style type="text/css">
	.st0{fill:#FFFFFF;}
	.st1{fill:#F9F9F9;}
	.st2{fill:#E3E3E3;}
	.st3{fill:#818182;}
	.st4{fill:#DBDBDB;}
	.st5{fill:#EFEFEF;}
	.st6{fill:#6A79A8;}
	.st7{fill:#C1BCBC;}
</style>
<g id="Ñëîé_1_1_">
	<rect id="XMLID_1_" class="st0" width="1200" height="1200"/>
	<path class="st1" d="M357.89,1034.74c-21.18-4.58-275.64-45.85-256.91-350.19s42.24-395.87,141.17-429.35
		s339.41-191.93,528.12-41.27s392.34,285.78,311.53,526.34s-94.04,320.8-304.87,308.52C566.11,1036.52,458.6,1056.53,357.89,1034.74
		z"/>
</g>
<g id="Ñëîé_2">
	<path id="XMLID_302_" class="st2" d="M771.12,919.68c27.13,9.77-39.93,23.03-49.34,23.99c-101.61,10.29-211.56,5.5-312.23-7.61
		c-4.13-0.54-8.4-1.14-11.81-2.81c-24.89-12.18,55.05-20.45,62.48-21.08c27.59-2.37,55.62-3.92,83.45-4.18
		C583.1,907.62,737.48,907.57,771.12,919.68z"/>
	<g>
		<path class="st3" d="M641.34,464.81c0.01-34.75,1.48-70.25-4.29-104.67c-4.16-24.84-13.75-50.67-37.08-63.36
			c-12.58-6.84-26.99-9.29-41.17-9.58c-14.65-0.3-29.69,1.28-43.29,7.04c-23.68,10.02-35.74,32.22-40.97,56.36
			c-8.08,37.27-5.24,76.73-5.22,114.58c0,2.51,4.89,1.78,4.89-0.38c-0.01-32.73-1.57-65.88,2.52-98.44
			c2.99-23.83,9.93-49.99,31.09-64.07c11.6-7.72,25.67-10.64,39.39-11.4c14.75-0.81,30.16,0.37,43.89,6.19
			c23.69,10.04,34.81,33.36,39.8,57.29c7.54,36.15,5.56,74.11,5.55,110.81C636.45,467.69,641.34,466.96,641.34,464.81L641.34,464.81
			z"/>
	</g>
	<polygon class="st4" points="396.07,811.01 396.07,414.84 441.24,414.84 441.24,458.08 424.65,837.39 416.6,818.31 	"/>
	<path class="st5" d="M404.07,792.76V433.89c0-10.52,8.53-19.04,19.04-19.04h18.13v42.11l-15.65,369.44l-4.62-18.59l-9.58-4.03
		C406.95,801.91,404.07,797.57,404.07,792.76z"/>
	<g>
		<path class="st3" d="M398.48,810.36c0-13.1,0-26.2,0-39.3c0-31.47,0-62.95,0-94.42c0-38.27,0-76.53,0-114.8
			c0-32.94,0-65.89,0-98.83c0-10.87,0-21.73,0-32.6c0-3.39,0-6.78,0-10.17c0-1.52,0.46-3.88,0-5.35c-0.06-0.19,0-0.49,0-0.7
			c-1.33,0.52-2.67,1.04-4,1.56c7.69,0,15.39,0,23.08,0c5.13,0,10.26,0,15.4,0c1.64,0,3.33,0.12,4.96,0c0.32-0.02,0.97-0.12,1.28,0
			c0.99,0.39-0.54-0.88-0.38-0.15c0.59,2.66,0,6.1,0,8.8c0,5.39,0,10.78,0,16.17c0,6.07,0.14,12.16,0,18.22
			c-0.45,19.6-1.72,39.22-2.57,58.81c-1.82,41.59-3.64,83.18-5.46,124.78c-1.86,42.51-3.72,85.03-5.58,127.54
			c-0.66,15.02-1.31,30.04-1.97,45.06c-0.21,4.83-0.42,9.65-0.63,14.48c-0.1,2.33-0.73,5.27-0.33,7.57c0.05,0.3-0.03,0.68-0.04,0.99
			c1.61-0.43,3.22-0.86,4.83-1.29c-1.4-3.33-2.81-6.66-4.21-9.99c-1.01-2.39-2.03-7.45-3.97-9.24c-1.98-1.83-7.29-2.59-9.8-3.48
			c-3.58-1.27-7.16-2.54-10.73-3.81c-1.31-0.47-4.8,1.51-4.57,1.59c3.27,1.16,6.53,2.32,9.8,3.48c2.33,0.83,4.66,1.65,6.98,2.48
			c0.94,0.34,2.94,0.62,3.69,1.31c1.64,1.49,2.97,7.11,3.95,9.41c1.34,3.18,2.68,6.36,4.02,9.54c0.4,0.95,4.79-0.28,4.83-1.29
			c0.67-15.35,1.34-30.7,2.01-46.04c1.56-35.63,3.12-71.26,4.67-106.89c1.76-40.29,3.52-80.58,5.29-120.87
			c1.28-29.33,2.57-58.66,3.85-87.99c0.8-18.2,0.77-36.31,0.77-54.54c0-2.07,0-4.14,0-6.21c0-0.26-0.76-0.27-0.83-0.27
			c-15.06,0-30.11,0-45.17,0c-0.78,0-4,0.42-4,1.56c0,13.1,0,26.2,0,39.3c0,31.47,0,62.95,0,94.42c0,38.27,0,76.53,0,114.8
			c0,32.94,0,65.89,0,98.83c0,10.87,0,21.73,0,32.6c0,3.39,0,6.78,0,10.17c0,1.36-0.54,4.08,0,5.35c0.07,0.17,0,0.51,0,0.7
			C393.65,812.26,398.48,811.63,398.48,810.36z"/>
	</g>
	<g>
		<g>
			<path class="st3" d="M560.75,919.85c0-27.2,0-54.41,0-81.61c0-2.65-4.91-2.04-4.91,0.3c0,27.2,0,54.41,0,81.61
				C555.84,922.8,560.75,922.19,560.75,919.85L560.75,919.85z"/>
		</g>
		<g>
			<path class="st3" d="M626.39,916.49c0-25.7,0-51.39,0-77.09c0-2.54-4.89-1.83-4.89,0.36c0,25.7,0,51.39,0,77.09
				C621.5,919.39,626.39,918.68,626.39,916.49L626.39,916.49z"/>
		</g>
	</g>
	<path class="st2" d="M424.65,458.08c130.27,28.46,341.6,6.04,332.95,0v379.32c0,0-110.6,16.61-332.95,0L424.65,458.08z"/>
	<path class="st0" d="M451.22,460.19c185.32,21.35,306.38-2.09,306.38-2.09v357.55c0,7.01-5.38,12.85-12.37,13.41
		c-39.93,3.19-169.53,11.93-285.14,1.64C445.31,829.37,434,816.94,434,802.1V475.51C434,466.28,442.05,459.13,451.22,460.19z"/>
	<g>
		<path class="st3" d="M423.13,459.23c58.85,8.6,118.72,10.54,178.13,10.37c45.74-0.13,91.96-0.98,137.45-6.15
			c5.44-0.62,11.03-1.17,16.34-2.56c0.79-0.21,7.03-2.02,4.81-3.71c-1.04-0.79-4.67-0.04-4.67,1.53c0,12.56,0,25.12,0,37.67
			c0,30.16,0,60.33,0,90.49c0,36.51,0,73.01,0,109.52c0,31.58,0,63.17,0,94.75c0,10.43,0,20.85,0,31.28c0,3.28,0,6.56,0,9.84
			c0,1.3-0.51,3.86,0,5.08c0.07,0.17,0,0.49,0,0.68c0.93-0.59,1.87-1.18,2.8-1.78c-30.38,4.55-61.55,5.55-92.19,6.51
			c-38.45,1.19-76.95,1.03-115.4-0.05c-25.45-0.71-50.89-1.83-76.31-3.31c-14-0.81-27.98-1.73-41.97-2.75
			c-0.99-0.07-4.78,0.28-5.05-0.21c-0.14-0.26,0.07-0.8,0-1.09c-0.86-3.52,0-8.34,0-11.94c0-7.5,0-14.99,0-22.49
			c0-22.74,0-45.47,0-68.21c0-56.79,0-113.59,0-170.38c0-22.73,0-45.46,0-68.18c0-11.58,0.83-23.52,0-35.08
			c-0.04-0.55,0-1.11,0-1.66c0-1.16-4.83-0.36-4.83,1.29c0,12.56,0,25.12,0,37.67c0,30.16,0,60.33,0,90.49c0,36.51,0,73.01,0,109.52
			c0,31.58,0,63.17,0,94.75c0,10.43,0,20.85,0,31.28c0,3.28,0,6.56,0,9.84c0,1.4-0.46,3.75,0,5.08c0.06,0.18,0,0.48,0,0.68
			c0,0.33,0.71,0.5,0.9,0.51c69.71,5.18,139.66,8.14,209.58,7.26c36.13-0.46,72.34-1.78,108.31-5.39c5.41-0.54,10.83-1.09,16.2-1.89
			c0.84-0.13,2.8-0.62,2.8-1.78c0-12.56,0-25.12,0-37.67c0-30.16,0-60.33,0-90.49c0-36.51,0-73.01,0-109.52c0-31.58,0-63.17,0-94.75
			c0-10.43,0-20.85,0-31.28c0-3.28,0-6.56,0-9.84c0-1.44,0.44-3.69,0-5.08c-0.06-0.19,0-0.48,0-0.68c-1.56,0.51-3.12,1.02-4.67,1.53
			c-0.1-0.07,1.03-0.37,0.26-0.35c-0.28,0.01-2.34,0.59-3.36,0.79c-5.19,1.01-10.48,1.57-15.73,2.13
			c-18.21,1.93-36.52,2.98-54.8,3.83c-54.1,2.52-108.42,2.72-162.52,0.08c-31.1-1.52-62.2-4.01-93.02-8.52
			C424.87,456.73,420.55,458.86,423.13,459.23z"/>
	</g>
	<path class="st2" d="M757.6,458.08l-75.19-30.14l44.07-13.09c0,0-140.15-9.18-330.42,0l45.17,14.94l-16.59,28.3
		C613.67,483,757.6,458.08,757.6,458.08z"/>
	<g>
		<path class="st3" d="M759.52,456.89c-25.06-10.05-50.13-20.09-75.19-30.14c-0.53,0.81-1.06,1.62-1.58,2.43
			c14.69-4.36,29.38-8.73,44.07-13.09c1.55-0.46,3.27-2.47,0.6-2.65c-19.66-1.28-39.38-1.96-59.07-2.57
			c-51.84-1.6-103.73-1.89-155.59-1.09c-38.81,0.59-77.6,1.83-116.37,3.69c-1.27,0.06-4.2,1.91-1.79,2.71
			c15.06,4.98,30.11,9.96,45.17,14.94c-0.26-0.47-0.52-0.94-0.78-1.41c-5.53,9.43-11.06,18.86-16.59,28.3
			c-0.39,0.67,0.03,1.31,0.78,1.41c64.68,8.48,129.98,12.13,195.2,10.92c39.64-0.74,79.34-3.09,118.7-8.01
			c6.75-0.84,13.5-1.71,20.21-2.87c2.32-0.4,3.97-3.32,0.64-2.75c-19.57,3.38-39.49,5.24-59.26,6.89
			c-51.5,4.3-103.3,5.16-154.93,3.13c-39.33-1.55-78.58-4.87-117.61-9.98c0.26,0.47,0.52,0.94,0.78,1.41
			c5.53-9.43,11.06-18.86,16.59-28.3c0.45-0.77-0.1-1.18-0.78-1.41c-15.06-4.98-30.11-9.96-45.17-14.94
			c-0.6,0.9-1.19,1.81-1.79,2.71c64.76-3.11,129.62-4.42,194.46-3.96c38.75,0.28,77.5,1.13,116.21,2.96
			c6.38,0.3,12.77,0.61,19.14,1.03c0.2-0.88,0.4-1.76,0.6-2.65c-14.69,4.36-29.38,8.73-44.07,13.09c-0.62,0.19-3.35,1.72-1.58,2.43
			c25.06,10.05,50.13,20.09,75.19,30.14C757.16,459.86,761.55,457.7,759.52,456.89z"/>
	</g>
	<g>
		<polygon class="st5" points="726.48,414.84 682.41,427.94 726.48,445.65 		"/>
		<g>
			<path class="st3" d="M726.09,413.36c-14.69,4.36-29.38,8.73-44.07,13.09c-1.41,0.42-3.09,2.16-1.03,2.99
				c14.69,5.91,29.38,11.81,44.07,17.72c1.05,0.42,3.86-0.26,3.86-1.74c0-10.27,0-20.54,0-30.81c0-2.34-4.87-1.49-4.87,0.46
				c0,10.27,0,20.54,0,30.81c1.29-0.58,2.57-1.16,3.86-1.74c-14.69-5.91-29.38-11.81-44.07-17.72c-0.34,1-0.69,2-1.03,2.99
				c14.69-4.36,29.38-8.73,44.07-13.09C729.79,415.47,729.04,412.48,726.09,413.36z"/>
		</g>
	</g>
	<g>
		<g>
			<path class="st3" d="M672.5,504.58c0.01-34.95,1.55-70.72-4.45-105.31c-4.33-24.94-14.3-50.51-38.15-62.57
				c-12.86-6.5-27.55-8.52-41.82-8.53c-14.16,0-28.59,1.81-41.71,7.4c-23.77,10.13-35.7,32.19-40.8,56.53
				c-7.77,37.08-5.05,76.16-5.04,113.77c0,0.77,4.83,0.09,4.83-1.29c-0.01-32.73-1.57-65.88,2.52-98.44
				c3.01-23.95,10.12-50.45,31.37-64.64c12.06-8.05,26.61-10.78,40.89-11.28c14.84-0.52,30.36,1.02,43.92,7.49
				c22.91,10.93,33.46,34.24,38.25,57.96c7.26,36,5.37,73.69,5.36,110.2C667.67,506.64,672.5,505.96,672.5,504.58L672.5,504.58z"/>
		</g>
		<g>
			<path class="st3" d="M507.91,513.19c-0.15,2.82-1.85,6.35-5.25,5.68c-2.94-0.58-4.91-3.53-4.9-6.41c0.01-3.1,2.32-6.36,5.73-5.32
				c2.86,0.87,4.27,3.62,4.42,6.43c0.09,1.71,4.94,0.69,4.83-1.29c-0.64-11.89-19.87-10.2-19.87,1.11
				c0.01,12.02,19.27,10.46,19.87-0.73C512.87,510.53,508.01,511.43,507.91,513.19z"/>
		</g>
		<g>
			<path class="st3" d="M675.22,513.23c-0.15,2.86-1.79,6.4-5.23,5.75c-2.97-0.56-4.93-3.69-4.93-6.54c0-3.1,2.25-6.53,5.71-5.4
				c2.86,0.94,4.3,3.68,4.45,6.53c0.08,1.48,4.93,0.51,4.83-1.29c-0.63-11.79-19.82-9.98-19.86,1.13
				c-0.04,11.91,19.26,10.2,19.86-0.8C680.14,510.7,675.3,511.67,675.22,513.23z"/>
		</g>
	</g>
	<g>
		<path class="st3" d="M421.94,641.83c-10.72,0.16-22.51,7.07-30.68,13.34c-19.53,15.01-28.97,38.41-31.82,62.3
			c-0.27,2.25,2.93,4.98,3.32,1.72c2.77-23.22,12.11-45.75,31.25-60.1c7.5-5.62,19.05-12.25,28.36-12.39
			C424.77,646.68,423.95,641.8,421.94,641.83L421.94,641.83z"/>
	</g>
	<g>
		<path class="st3" d="M757.58,611.97c10.39,1.8,21.01,8.58,29.54,14.34c20.67,13.95,37.01,33.33,48.78,55.22
			c1.18,2.2,1.45-2.61,0.89-3.65c-11.83-22.02-28.1-41.59-48.79-55.8c-8.92-6.13-20-13.19-30.94-15.08
			C756.15,606.84,756.09,611.71,757.58,611.97L757.58,611.97z"/>
	</g>
	<g>
		
			<ellipse transform="matrix(0.2288 -0.9735 0.9735 0.2288 -204.4605 990.431)" class="st3" cx="522.84" cy="624.25" rx="10.23" ry="10.23"/>
		
			<ellipse transform="matrix(0.2657 -0.964 0.964 0.2657 -110.8777 1091.9773)" class="st3" cx="661.41" cy="618.78" rx="10.23" ry="10.23"/>
		<g id="XMLID_198_">
			<path class="st3" d="M525.86,712.27c10.11-11.33,25.14-19.51,39.44-23.93c26.24-8.12,55.49-4.11,79.16,9.58
				c4.88,2.82,9.82,6.05,13.9,9.98c1.1,1.06,5.63-0.72,4.51-1.81c-12.43-12-30.58-19.3-47.24-22.49
				c-27.49-5.27-56.17,0.61-79.34,16.28c-5.3,3.59-10.59,7.64-14.88,12.44C520.15,713.73,524.91,713.33,525.86,712.27L525.86,712.27
				z"/>
		</g>
	</g>
	<g>
		<ellipse class="st7" cx="492.17" cy="671.55" rx="13.66" ry="18.81"/>
		<ellipse class="st7" cx="692.72" cy="666.54" rx="13.66" ry="18.81"/>
	</g>
	<path class="st7" d="M655.07,639.3c0,2.73-2.22,4.95-4.95,4.95c-2.73,0-4.95-2.22-4.95-4.95c0-2.73,4.95-11.53,4.95-11.53
		S655.07,636.57,655.07,639.3z"/>
</g>
</svg>
