<svg width="120" height="61" viewBox="0 0 120 61" fill="none" xmlns="http://www.w3.org/2000/svg">
<g clip-path="url(#clip0)">
<path fill-rule="evenodd" clip-rule="evenodd" d="M0.000244141 41.3156L4.1805 34.075L8.36084 26.8345H16.7214H25.082L29.2623 34.075L33.4425 41.3156L29.2623 48.5561L25.082 55.7966H16.7214H8.36084L4.1805 48.5561L0.000244141 41.3156H0.000244141ZM2.27855 41.3156L9.50004 53.8235H23.943L31.1644 41.3156L23.943 28.8077H9.50004L2.27855 41.3156Z" fill="#E6E6E6"/>
<path fill-rule="evenodd" clip-rule="evenodd" d="M11.2938 12.0675L14.7774 6.03378L18.261 4.57764e-05H25.228H32.1952L35.6788 6.03378L39.1625 12.0675L35.6788 18.1012L32.1952 24.135H25.228H18.261L14.7774 18.1012L11.2938 12.0675ZM13.5721 12.0675L19.4002 22.1619H31.056L36.884 12.0675L31.056 1.97307H19.4002L13.5721 12.0675Z" fill="#E6E6E6"/>
<path fill-rule="evenodd" clip-rule="evenodd" d="M37.7863 19.3613L39.8763 15.7411L41.9664 12.1208H46.1467H50.327L52.4171 15.7411L54.5073 19.3613L52.4171 22.9816L50.327 26.6018H46.1467H41.9664L39.8763 22.9816L37.7863 19.3613ZM40.0645 19.3613L43.1056 24.6287H49.1879L52.229 19.3613L49.1879 14.0939H43.1056L40.0645 19.3613Z" fill="#E6E6E6"/>
<path d="M51.4277 51.7986H48.2082V42.5177C48.2082 41.3529 47.9706 40.4864 47.5047 39.9133C47.0341 39.3402 46.2887 39.0513 45.2683 39.0513C43.9218 39.0513 42.9295 39.4521 42.3006 40.258C41.6669 41.064 41.3501 42.4152 41.3501 44.3067V51.7986H38.14V30.5532H41.3501V35.9484C41.3501 36.8104 41.2941 37.7329 41.187 38.7159H41.392C41.83 37.9891 42.4356 37.4253 43.2137 37.0247C43.9918 36.624 44.9003 36.4236 45.9393 36.4236C49.5966 36.4236 51.4276 38.2686 51.4276 41.954L51.4277 51.7986ZM66.5417 51.7986L66.0898 49.8231H65.9268C65.4794 50.5267 64.8458 51.0764 64.0212 51.4771C63.1965 51.8778 62.2554 52.0781 61.2024 52.0781C59.3714 52.0781 58.0063 51.6215 57.1024 50.713C56.2032 49.8045 55.7513 48.4254 55.7513 46.5757V36.7031H58.9847V46.0119C58.9847 47.1674 59.2223 48.034 59.6975 48.6118C60.1681 49.1895 60.9136 49.4783 61.9246 49.4783C63.2711 49.4783 64.2634 49.0776 64.8924 48.2717C65.526 47.4656 65.8428 46.1145 65.8428 44.2229V36.7031H69.067V51.7985L66.5417 51.7986ZM81.3436 36.4236C83.2306 36.4236 84.6981 37.1085 85.7465 38.4736C86.7994 39.8387 87.3212 41.7536 87.3212 44.2229C87.3212 46.7015 86.7901 48.6304 85.7278 50.0095C84.6609 51.3885 83.184 52.0781 81.2924 52.0781C79.3821 52.0781 77.8959 51.3885 76.843 50.0141H76.624L76.037 51.7985H73.6329V30.5531H76.843V35.6036C76.843 35.9764 76.8244 36.5354 76.787 37.2716C76.7498 38.0077 76.7218 38.4783 76.7032 38.6786H76.843C77.8587 37.1737 79.3635 36.4236 81.3436 36.4236ZM80.5143 39.0513C79.2191 39.0513 78.2919 39.4334 77.7235 40.1927C77.1552 40.9522 76.8616 42.2241 76.843 44.0039V44.2229C76.843 46.0632 77.1319 47.3911 77.7142 48.2157C78.2966 49.0404 79.247 49.4504 80.5656 49.4504C81.7024 49.4504 82.5643 48.9984 83.1514 48.0992C83.7384 47.2 84.0319 45.8955 84.0319 44.1949C84.0319 40.7659 82.8579 39.0513 80.5143 39.0513ZM97.6411 52.0781C95.2929 52.0781 93.4572 51.3932 92.1341 50.0235C90.8109 48.6537 90.1493 46.7622 90.1493 44.3581C90.1493 41.8934 90.7643 39.9505 91.9896 38.5389C93.2196 37.1272 94.9062 36.4236 97.0541 36.4236C99.0435 36.4236 100.618 37.0293 101.774 38.2407C102.929 39.4521 103.507 41.12 103.507 43.2445V44.9777H93.4526C93.4945 46.4406 93.8906 47.5682 94.636 48.3555C95.3861 49.1429 96.4344 49.5343 97.7902 49.5343C98.6801 49.5343 99.5094 49.4504 100.278 49.2827C101.047 49.115 101.876 48.8354 102.757 48.4441V51.0532C101.974 51.4259 101.182 51.6914 100.381 51.8452C99.584 51.999 98.666 52.0781 97.6411 52.0781ZM97.0541 38.8557C96.0337 38.8557 95.2183 39.1771 94.6034 39.8248C93.9884 40.4724 93.625 41.4182 93.5038 42.6575H100.353C100.334 41.4089 100.036 40.463 99.4535 39.8201C98.8711 39.1771 98.0697 38.8557 97.0541 38.8557ZM113.748 52.0781C111.399 52.0781 109.564 51.3932 108.241 50.0235C106.917 48.6537 106.256 46.7622 106.256 44.3581C106.256 41.8934 106.871 39.9505 108.096 38.5389C109.326 37.1272 111.013 36.4236 113.16 36.4236C115.15 36.4236 116.725 37.0293 117.88 38.2407C119.036 39.4521 119.613 41.12 119.613 43.2445V44.9777H109.559C109.601 46.4406 109.997 47.5682 110.742 48.3555C111.493 49.1429 112.541 49.5343 113.897 49.5343C114.786 49.5343 115.616 49.4504 116.385 49.2827C117.153 49.115 117.983 48.8354 118.863 48.4441V51.0532C118.08 51.4259 117.288 51.6914 116.487 51.8452C115.69 51.999 114.772 52.0781 113.748 52.0781ZM113.16 38.8557C112.14 38.8557 111.325 39.1771 110.71 39.8248C110.095 40.4724 109.731 41.4182 109.61 42.6575H116.459C116.441 41.4089 116.142 40.463 115.56 39.8201C114.978 39.1771 114.176 38.8557 113.16 38.8557Z" fill="#E6E6E6"/>
<path d="M110.158 56.5674H109.36V55.8733H111.72V56.5674H110.922V60.7325H110.158V56.5674ZM112.088 55.8733H114.171V56.5674H112.852V57.8517H113.9V58.5459H112.852V60.0383H114.171V60.7326H112.088V55.8733V55.8733ZM115.684 60.802C115.318 60.802 115.039 60.6978 114.847 60.4896C114.655 60.2814 114.559 59.9875 114.559 59.608V56.9978C114.559 56.6183 114.655 56.3244 114.847 56.1162C115.039 55.908 115.318 55.8038 115.684 55.8038C116.05 55.8038 116.328 55.908 116.52 56.1162C116.712 56.3244 116.808 56.6183 116.808 56.9978V57.5115H116.087V56.9492C116.087 56.6484 115.959 56.498 115.705 56.498C115.45 56.498 115.323 56.6484 115.323 56.9492V59.6634C115.323 59.9597 115.45 60.1077 115.705 60.1077C115.959 60.1077 116.087 59.9597 116.087 59.6634V58.9206H116.808V59.6079C116.808 59.9874 116.712 60.2813 116.52 60.4895C116.328 60.6978 116.05 60.8019 115.684 60.8019V60.802ZM117.267 55.8733H118.03V57.8517H118.849V55.8733H119.613V60.7325H118.849V58.5459H118.03V60.7325H117.267V55.8733Z" fill="#E6E6E6"/>
</g>
<defs>
<clipPath id="clip0">
<rect width="119.613" height="60.802" fill="white"/>
</clipPath>
</defs>
</svg>
