<svg width="259" height="132" viewBox="0 0 259 132" fill="none" xmlns="http://www.w3.org/2000/svg">
<path fill-rule="evenodd" clip-rule="evenodd" d="M0.000244141 89.3502L9.04057 73.6916L18.0811 58.033H36.1618H54.2427L63.2831 73.6916L72.3234 89.3502L63.2831 105.009L54.2427 120.667H36.1618H18.0811L9.04057 105.009L0.000244141 89.3502H0.000244141ZM4.92737 89.3502L20.5448 116.4H51.7794L67.3966 89.3502L51.7794 62.3003H20.5448L4.92737 89.3502V89.3502Z" fill="#272C59"/>
<path fill-rule="evenodd" clip-rule="evenodd" d="M24.4243 26.0974L31.958 13.0487L39.4918 0H54.5589H69.6263L77.1602 13.0487L84.694 26.0974L77.1602 39.1461L69.6263 52.1949H54.5589H39.4918L31.958 39.1461L24.4243 26.0974V26.0974ZM29.3515 26.0974L41.9555 47.9279H67.1628L79.7665 26.0974L67.1628 4.26693H41.9555L29.3515 26.0974V26.0974Z" fill="#4FCADB"/>
<path fill-rule="evenodd" clip-rule="evenodd" d="M81.7175 41.8711L86.2375 34.0419L90.7576 26.2126H99.7981H108.838L113.359 34.0419L117.879 41.8711L113.359 49.7005L108.838 57.5297H99.7981H90.7576L86.2375 49.7005L81.7175 41.8711ZM86.6444 41.8711L93.2213 53.2626H106.375L112.952 41.8711L106.375 30.4798H93.2213L86.6444 41.8711Z" fill="#FF7A00"/>
<path d="M111.218 112.021H104.256V91.9497C104.256 89.4309 103.742 87.5568 102.734 86.3174C101.717 85.0781 100.105 84.4534 97.8979 84.4534C94.986 84.4534 92.84 85.32 91.4798 87.063C90.1094 88.806 89.4243 91.7281 89.4243 95.8188V112.021H82.4819V66.075H89.4243V77.743C89.4243 79.607 89.3032 81.602 89.0715 83.7279H89.5149C90.4621 82.1561 91.7719 80.9369 93.4546 80.0704C95.1372 79.2039 97.102 78.7706 99.3489 78.7706C107.258 78.7706 111.218 82.7607 111.218 90.7307V112.021H111.218ZM143.904 112.021L142.927 107.749H142.574C141.607 109.27 140.237 110.459 138.453 111.326C136.67 112.192 134.635 112.625 132.357 112.625C128.398 112.625 125.445 111.638 123.491 109.673C121.546 107.708 120.569 104.726 120.569 100.726V79.3751H127.561V99.5066C127.561 102.005 128.075 103.879 129.103 105.129C130.121 106.378 131.733 107.003 133.919 107.003C136.831 107.003 138.977 106.137 140.338 104.393C141.708 102.65 142.393 99.7284 142.393 95.6375V79.3751H149.366V112.021H143.904V112.021ZM175.915 78.7706C179.996 78.7706 183.17 80.2517 185.437 83.204C187.714 86.1562 188.843 90.2973 188.843 95.6375C188.843 100.998 187.694 105.169 185.397 108.152C183.089 111.134 179.895 112.625 175.805 112.625C171.673 112.625 168.459 111.134 166.182 108.162H165.709L164.439 112.021H159.24V66.075H166.182V76.9972C166.182 77.8034 166.142 79.0123 166.061 80.6045C165.981 82.1964 165.92 83.2141 165.88 83.6473H166.182C168.379 80.3928 171.633 78.7705 175.915 78.7705V78.7706ZM174.122 84.4534C171.321 84.4534 169.316 85.2796 168.086 86.9218C166.857 88.5642 166.223 91.315 166.182 95.1639V95.6375C166.182 99.6174 166.807 102.489 168.066 104.273C169.326 106.056 171.381 106.943 174.233 106.943C176.691 106.943 178.555 105.965 179.825 104.021C181.095 102.076 181.729 99.2547 181.729 95.577C181.729 88.1613 179.19 84.4534 174.122 84.4534V84.4534ZM211.161 112.625C206.082 112.625 202.113 111.144 199.251 108.182C196.39 105.22 194.959 101.129 194.959 95.9298C194.959 90.5996 196.289 86.3979 198.939 83.3451C201.599 80.2921 205.246 78.7706 209.891 78.7706C214.194 78.7706 217.599 80.0804 220.098 82.7002C222.597 85.32 223.846 88.9271 223.846 93.5217V97.2699H202.103C202.193 100.434 203.05 102.872 204.662 104.575C206.284 106.278 208.551 107.124 211.483 107.124C213.408 107.124 215.201 106.943 216.864 106.58C218.526 106.217 220.32 105.613 222.224 104.766V110.409C220.531 111.215 218.818 111.789 217.085 112.122C215.362 112.454 213.377 112.625 211.161 112.625H211.161ZM209.891 84.0302C207.685 84.0302 205.921 84.7254 204.591 86.126C203.261 87.5265 202.475 89.572 202.213 92.2521H217.025C216.985 89.5518 216.34 87.5063 215.08 86.116C213.821 84.7254 212.088 84.0302 209.891 84.0302H209.891ZM245.993 112.625C240.915 112.625 236.945 111.144 234.083 108.182C231.222 105.22 229.791 101.129 229.791 95.9298C229.791 90.5996 231.121 86.3979 233.771 83.3451C236.431 80.2921 240.078 78.7706 244.723 78.7706C249.026 78.7706 252.431 80.0804 254.93 82.7002C257.429 85.32 258.678 88.9271 258.678 93.5217V97.2699H236.935C237.026 100.434 237.882 102.872 239.494 104.575C241.116 106.278 243.383 107.124 246.315 107.124C248.24 107.124 250.033 106.943 251.696 106.58C253.359 106.217 255.152 105.613 257.056 104.766V110.409C255.364 111.215 253.651 111.789 251.918 112.122C250.195 112.454 248.21 112.625 245.993 112.625H245.993ZM244.723 84.0302C242.517 84.0302 240.753 84.7254 239.424 86.126C238.093 87.5265 237.308 89.572 237.046 92.2521H251.857C251.817 89.5518 251.172 87.5063 249.913 86.116C248.653 84.7254 246.92 84.0302 244.724 84.0302H244.723Z" fill="#272C59"/>
<path d="M238.232 122.334H236.505V120.833H241.609V122.334H239.883V131.342H238.232V122.334V122.334ZM242.405 120.833H246.909V122.334H244.056V125.112H246.323V126.613H244.056V129.841H246.909V131.342H242.405V120.833V120.833ZM250.182 131.492C249.391 131.492 248.788 131.267 248.373 130.816C247.957 130.366 247.75 129.73 247.75 128.91V123.265C247.75 122.444 247.957 121.809 248.373 121.358C248.788 120.908 249.391 120.683 250.182 120.683C250.972 120.683 251.575 120.908 251.991 121.358C252.406 121.809 252.614 122.444 252.614 123.265V124.376H251.052V123.16C251.052 122.509 250.777 122.184 250.226 122.184C249.676 122.184 249.401 122.509 249.401 123.16V129.03C249.401 129.67 249.676 129.991 250.226 129.991C250.777 129.991 251.052 129.67 251.052 129.03V127.423H252.614V128.91C252.614 129.73 252.406 130.366 251.991 130.816C251.575 131.267 250.972 131.492 250.182 131.492V131.492ZM253.604 120.833H255.256V125.112H257.027V120.833H258.679V131.342H257.027V126.613H255.256V131.342H253.604V120.833Z" fill="#272C59"/>
</svg>
