<svg width="197" height="100" viewBox="0 0 197 100" fill="none" xmlns="http://www.w3.org/2000/svg">
<g clip-path="url(#clip0)">
<path fill-rule="evenodd" clip-rule="evenodd" d="M0.00213623 67.9511L6.87733 56.0427L13.7527 44.1343H27.5031H41.2537L48.1289 56.0427L55.004 67.9511L48.1289 79.8595L41.2537 91.7678H27.5031H13.7527L6.87733 79.8595L0.00213623 67.9511H0.00213623ZM3.74923 67.9511L15.6263 88.5226H39.3803L51.2573 67.9511L39.3803 47.3796H15.6263L3.74923 67.9511Z" fill="#E6E6E6"/>
<path fill-rule="evenodd" clip-rule="evenodd" d="M18.5768 19.8473L24.3062 9.92367L30.0357 9.15527e-05H41.4942H52.953L58.6825 9.92367L64.412 19.8473L58.6825 29.7708L52.953 39.6944H41.4942H30.0357L24.3062 29.7708L18.5768 19.8473ZM22.3239 19.8473L31.9093 36.4494H51.0795L60.6647 19.8473L51.0795 3.2451H31.9093L22.3239 19.8473Z" fill="#E6E6E6"/>
<path fill-rule="evenodd" clip-rule="evenodd" d="M62.1483 31.8432L65.5857 25.889L69.0232 19.9349H75.8986H82.7737L86.2114 25.889L89.6491 31.8432L86.2114 37.7974L82.7737 43.7516H75.8986H69.0232L65.5857 37.7974L62.1483 31.8432ZM65.8952 31.8432L70.8969 40.5065H80.9004L85.9019 31.8432L80.9004 23.18H70.8969L65.8952 31.8432Z" fill="#E6E6E6"/>
<path d="M84.5837 85.1923H79.2887V69.9281C79.2887 68.0125 78.8979 66.5873 78.1317 65.6447C77.3577 64.7023 76.1317 64.2271 74.4535 64.2271C72.239 64.2271 70.6069 64.8862 69.5725 66.2118C68.5303 67.5373 68.0093 69.7596 68.0093 72.8706V85.1923H62.7296V50.2503H68.0093V59.1238C68.0093 60.5415 67.9172 62.0587 67.741 63.6754H68.0782C68.7986 62.48 69.7947 61.5528 71.0744 60.8939C72.354 60.2349 73.8482 59.9054 75.557 59.9054C81.5722 59.9054 84.5837 62.9398 84.5837 69.001L84.5837 85.1923ZM109.442 85.1923L108.698 81.9432H108.43C107.694 83.1004 106.652 84.0045 105.296 84.6636C103.94 85.3226 102.392 85.6521 100.66 85.6521C97.6486 85.6521 95.4035 84.9011 93.9169 83.4068C92.438 81.9126 91.6946 79.6444 91.6946 76.6024V60.3651H97.0126V75.6751C97.0126 77.5754 97.4034 79.0007 98.185 79.951C98.959 80.9011 100.185 81.3762 101.848 81.3762C104.062 81.3762 105.694 80.7172 106.729 79.3916C107.771 78.0659 108.292 75.8438 108.292 72.7327V60.3651H113.595V85.1922L109.442 85.1923ZM133.786 59.9054C136.889 59.9054 139.303 61.0318 141.027 63.2769C142.759 65.5221 143.617 68.6714 143.617 72.7327C143.617 76.8093 142.744 79.9817 140.997 82.2498C139.242 84.5179 136.813 85.652 133.702 85.652C130.56 85.652 128.116 84.5178 126.384 82.2574H126.024L125.058 85.1922H121.104V50.2503H126.384V58.5566C126.384 59.1698 126.353 60.0892 126.292 61.3C126.231 62.5107 126.185 63.2846 126.154 63.6141H126.384C128.054 61.1391 130.529 59.9054 133.786 59.9054ZM132.422 64.2271C130.292 64.2271 128.767 64.8554 127.832 66.1044C126.897 67.3534 126.415 69.4454 126.384 72.3725V72.7327C126.384 75.7594 126.859 77.9433 127.817 79.2997C128.775 80.6559 130.338 81.3303 132.506 81.3303C134.376 81.3303 135.794 80.5869 136.759 79.108C137.725 77.6291 138.207 75.4836 138.207 72.6866C138.207 67.047 136.276 64.2271 132.422 64.2271ZM160.59 85.6521C156.728 85.6521 153.709 84.5256 151.533 82.2728C149.357 80.02 148.269 76.909 148.269 72.955C148.269 68.9014 149.28 65.706 151.295 63.3843C153.318 61.0625 156.092 59.9054 159.625 59.9054C162.897 59.9054 165.487 60.9015 167.387 62.8938C169.287 64.8862 170.237 67.6294 170.237 71.1236V73.9741H153.701C153.77 76.3801 154.422 78.2346 155.648 79.5295C156.881 80.8245 158.605 81.4682 160.835 81.4682C162.299 81.4682 163.663 81.3303 164.927 81.0544C166.192 80.7786 167.556 80.3188 169.004 79.6752V83.9663C167.716 84.5793 166.414 85.0161 165.096 85.269C163.786 85.5219 162.276 85.6521 160.59 85.6521ZM159.625 63.9053C157.946 63.9053 156.606 64.434 155.594 65.4991C154.583 66.5642 153.985 68.1198 153.786 70.1581H165.05C165.019 68.1045 164.529 66.5489 163.571 65.4915C162.613 64.434 161.295 63.9053 159.625 63.9053ZM187.08 85.6521C183.218 85.6521 180.199 84.5256 178.023 82.2728C175.847 80.02 174.758 76.909 174.758 72.955C174.758 68.9014 175.77 65.706 177.785 63.3843C179.808 61.0625 182.582 59.9054 186.115 59.9054C189.387 59.9054 191.977 60.9015 193.877 62.8938C195.777 64.8862 196.727 67.6294 196.727 71.1236V73.9741H180.191C180.26 76.3801 180.912 78.2346 182.138 79.5295C183.371 80.8245 185.095 81.4682 187.325 81.4682C188.789 81.4682 190.153 81.3303 191.417 81.0544C192.682 80.7786 194.046 80.3188 195.494 79.6752V83.9663C194.206 84.5793 192.904 85.0161 191.586 85.269C190.276 85.5219 188.766 85.6521 187.08 85.6521ZM186.115 63.9053C184.436 63.9053 183.095 64.434 182.084 65.4991C181.073 66.5642 180.475 68.1198 180.276 70.1581H191.54C191.509 68.1045 191.019 66.5489 190.061 65.4915C189.103 64.434 187.785 63.9053 186.115 63.9053Z" fill="#E6E6E6"/>
<path d="M181.178 93.0355H179.865V91.8938H183.746V93.0355H182.434V99.8858H181.178V93.0355ZM184.352 91.8938H187.777V93.0355H185.607V95.1477H187.331V96.2895H185.607V98.7441H187.777V99.8859H184.352V91.8939V91.8938ZM190.266 100C189.664 100 189.206 99.8287 188.89 99.4862C188.574 99.1438 188.416 98.6604 188.416 98.0362V93.7434C188.416 93.1193 188.574 92.6359 188.89 92.2935C189.206 91.951 189.664 91.7797 190.266 91.7797C190.867 91.7797 191.326 91.951 191.641 92.2935C191.957 92.6359 192.115 93.1193 192.115 93.7434V94.5882H190.928V93.6635C190.928 93.1688 190.718 92.9213 190.3 92.9213C189.881 92.9213 189.672 93.1688 189.672 93.6635V98.1274C189.672 98.6147 189.881 98.8582 190.3 98.8582C190.718 98.8582 190.928 98.6147 190.928 98.1274V96.9058H192.115V98.0362C192.115 98.6603 191.957 99.1437 191.641 99.4861C191.326 99.8286 190.867 99.9999 190.266 99.9999V100ZM192.869 91.8938H194.125V95.1477H195.472V91.8938H196.728V99.8858H195.472V96.2894H194.125V99.8858H192.869V91.8938Z" fill="#E6E6E6"/>
</g>
<defs>
<clipPath id="clip0">
<rect width="196.726" height="100" fill="white" transform="translate(0.00189209)"/>
</clipPath>
</defs>
</svg>
